<?xml version="1.0" encoding="UTF-8"?>
<svg id="Camada_1" data-name="Camada 1" xmlns="http://www.w3.org/2000/svg" xmlns:xlink="http://www.w3.org/1999/xlink" viewBox="0 0 676.4 907.6">
  <defs>
    <style>
      .cls-1 {
        letter-spacing: 0em;
      }

      .cls-2 {
        clip-path: url(#clippath-7);
      }

      .cls-3 {
        letter-spacing: -.04em;
      }

      .cls-4 {
        letter-spacing: 0em;
      }

      .cls-5 {
        letter-spacing: 0em;
      }

      .cls-6 {
        font-size: 4.34px;
      }

      .cls-6, .cls-7, .cls-8, .cls-9, .cls-10 {
        font-family: ArialMT, Arial;
        isolation: isolate;
      }

      .cls-6, .cls-10 {
        fill: #4e4d4d;
      }

      .cls-11 {
        letter-spacing: .01em;
      }

      .cls-12 {
        letter-spacing: 0em;
      }

      .cls-13 {
        letter-spacing: 0em;
      }

      .cls-14 {
        clip-path: url(#clippath-9);
      }

      .cls-7 {
        font-size: 7.16px;
      }

      .cls-7, .cls-9 {
        fill: #010101;
      }

      .cls-15 {
        fill: #fff;
      }

      .cls-15, .cls-16 {
        stroke: #cdcccc;
        stroke-miterlimit: 10;
        stroke-width: .64px;
      }

      .cls-17 {
        letter-spacing: 0em;
      }

      .cls-18 {
        clip-path: url(#clippath-11);
      }

      .cls-19 {
        fill: none;
      }

      .cls-20 {
        letter-spacing: .04em;
      }

      .cls-21 {
        letter-spacing: -.07em;
      }

      .cls-22 {
        letter-spacing: 0em;
      }

      .cls-23 {
        letter-spacing: .04em;
      }

      .cls-16 {
        fill: #7f8080;
      }

      .cls-24 {
        clip-path: url(#clippath-1);
      }

      .cls-25 {
        clip-path: url(#clippath-5);
      }

      .cls-26 {
        letter-spacing: -.02em;
      }

      .cls-27 {
        letter-spacing: -.05em;
      }

      .cls-8 {
        fill: #1b1b1b;
        font-size: 5.42px;
      }

      .cls-28 {
        clip-path: url(#clippath-3);
      }

      .cls-29 {
        clip-path: url(#clippath-12);
      }

      .cls-30 {
        letter-spacing: 0em;
      }

      .cls-31 {
        letter-spacing: -.02em;
      }

      .cls-32 {
        letter-spacing: .01em;
      }

      .cls-9 {
        font-size: 5.97px;
      }

      .cls-33 {
        letter-spacing: 0em;
      }

      .cls-34 {
        letter-spacing: .06em;
      }

      .cls-35 {
        letter-spacing: .04em;
      }

      .cls-10 {
        font-size: 4.88px;
      }

      .cls-36 {
        letter-spacing: -.02em;
      }

      .cls-37 {
        letter-spacing: 1.05em;
      }
    </style>
    <clipPath id="clippath-1">
      <rect class="cls-19" x="114.75" y="68.49" width="206.45" height="709.66"/>
    </clipPath>
    <clipPath id="clippath-3">
      <rect class="cls-19" x="323.55" y="68.49" width="231.63" height="709.66"/>
    </clipPath>
    <clipPath id="clippath-5">
      <rect class="cls-19" x="557.52" y="68.49" width="80.57" height="709.66"/>
    </clipPath>
    <clipPath id="clippath-7">
      <rect class="cls-19" x="114.75" y="58.61" width="206.45" height="9.89"/>
    </clipPath>
    <clipPath id="clippath-9">
      <rect class="cls-19" x="323.55" y="58.61" width="231.63" height="9.89"/>
    </clipPath>
    <clipPath id="clippath-11">
      <rect class="cls-19" x="557.52" y="58.61" width="80.57" height="9.89"/>
    </clipPath>
    <clipPath id="clippath-12">
      <rect class="cls-19" x="16.22" y="37.26" width="624.84" height="781.05"/>
    </clipPath>
  </defs>
  <rect class="cls-19" x="16.22" y="37.26" width="624.84" height="781.05"/>
  <g class="cls-24">
    <g>
      <rect class="cls-16" x="117.27" y="589.65" width="25.18" height="36.96"/>
      <rect class="cls-16" x="117.27" y="552.69" width="25.18" height="36.96"/>
      <rect class="cls-16" x="117.27" y="515.73" width="25.18" height="36.96"/>
      <rect class="cls-15" x="117.27" y="626.61" width="25.18" height="36.96"/>
      <rect class="cls-15" x="117.27" y="257" width="25.18" height="36.96"/>
      <rect class="cls-15" x="117.27" y="220.04" width="25.18" height="36.96"/>
      <rect class="cls-15" x="117.27" y="293.96" width="25.18" height="36.96"/>
      <rect class="cls-15" x="117.27" y="737.5" width="25.18" height="36.96"/>
      <rect class="cls-15" x="117.27" y="109.15" width="25.18" height="36.96"/>
      <rect class="cls-15" x="117.27" y="72.19" width="25.18" height="36.96"/>
      <rect class="cls-15" x="117.27" y="146.12" width="25.18" height="36.96"/>
      <rect class="cls-15" x="117.27" y="183.08" width="25.18" height="36.96"/>
      <rect class="cls-15" x="117.27" y="700.54" width="25.18" height="36.96"/>
      <rect class="cls-15" x="117.27" y="663.58" width="25.18" height="36.96"/>
      <rect class="cls-15" x="117.27" y="330.92" width="25.18" height="36.96"/>
      <rect class="cls-15" x="117.27" y="367.89" width="25.18" height="36.96"/>
      <rect class="cls-15" x="117.27" y="478.77" width="25.18" height="36.96"/>
      <rect class="cls-15" x="117.27" y="441.81" width="25.18" height="36.96"/>
      <rect class="cls-15" x="117.27" y="404.84" width="25.18" height="36.96"/>
      <rect class="cls-16" x="142.45" y="589.65" width="25.18" height="36.96"/>
      <rect class="cls-16" x="142.45" y="552.69" width="25.18" height="36.96"/>
      <rect class="cls-16" x="142.45" y="515.73" width="25.18" height="36.96"/>
      <rect class="cls-16" x="142.45" y="626.61" width="25.18" height="36.96"/>
      <rect class="cls-15" x="142.45" y="257" width="25.18" height="36.96"/>
      <rect class="cls-15" x="142.45" y="220.04" width="25.18" height="36.96"/>
      <rect class="cls-15" x="142.45" y="293.96" width="25.18" height="36.96"/>
      <rect class="cls-15" x="142.45" y="737.5" width="25.18" height="36.96"/>
      <rect class="cls-15" x="142.45" y="109.15" width="25.18" height="36.96"/>
      <rect class="cls-15" x="142.45" y="72.19" width="25.18" height="36.96"/>
      <rect class="cls-15" x="142.45" y="146.12" width="25.18" height="36.96"/>
      <rect class="cls-15" x="142.45" y="183.08" width="25.18" height="36.96"/>
      <rect class="cls-15" x="142.45" y="700.54" width="25.18" height="36.96"/>
      <rect class="cls-15" x="142.45" y="663.58" width="25.18" height="36.96"/>
      <rect class="cls-15" x="142.45" y="330.92" width="25.18" height="36.96"/>
      <rect class="cls-15" x="142.45" y="367.89" width="25.18" height="36.96"/>
      <rect class="cls-15" x="142.45" y="478.77" width="25.18" height="36.96"/>
      <rect class="cls-15" x="142.45" y="441.81" width="25.18" height="36.96"/>
      <rect class="cls-15" x="142.45" y="404.84" width="25.18" height="36.96"/>
      <rect class="cls-16" x="167.63" y="589.65" width="25.18" height="36.96"/>
      <rect class="cls-16" x="167.63" y="552.69" width="25.18" height="36.96"/>
      <rect class="cls-16" x="167.63" y="515.73" width="25.18" height="36.96"/>
      <rect class="cls-16" x="167.63" y="626.61" width="25.18" height="36.96"/>
      <rect class="cls-15" x="167.63" y="257" width="25.18" height="36.96"/>
      <rect class="cls-15" x="167.63" y="220.04" width="25.18" height="36.96"/>
      <rect class="cls-15" x="167.63" y="293.96" width="25.18" height="36.96"/>
      <rect class="cls-15" x="167.63" y="737.5" width="25.18" height="36.96"/>
      <rect class="cls-15" x="167.63" y="109.15" width="25.18" height="36.96"/>
      <rect class="cls-15" x="167.63" y="72.19" width="25.18" height="36.96"/>
      <rect class="cls-15" x="167.63" y="146.12" width="25.18" height="36.96"/>
      <rect class="cls-15" x="167.63" y="183.08" width="25.18" height="36.96"/>
      <rect class="cls-15" x="167.63" y="700.54" width="25.18" height="36.96"/>
      <rect class="cls-15" x="167.63" y="663.58" width="25.18" height="36.96"/>
      <rect class="cls-15" x="167.63" y="330.92" width="25.18" height="36.96"/>
      <rect class="cls-15" x="167.63" y="367.89" width="25.18" height="36.96"/>
      <rect class="cls-15" x="167.63" y="478.77" width="25.18" height="36.96"/>
      <rect class="cls-15" x="167.63" y="441.81" width="25.18" height="36.96"/>
      <rect class="cls-15" x="167.63" y="404.84" width="25.18" height="36.96"/>
      <rect class="cls-16" x="192.8" y="589.65" width="25.18" height="36.96"/>
      <rect class="cls-16" x="192.8" y="552.69" width="25.18" height="36.96"/>
      <rect class="cls-16" x="192.8" y="515.73" width="25.18" height="36.96"/>
      <rect class="cls-16" x="192.8" y="626.61" width="25.18" height="36.96"/>
      <rect class="cls-15" x="192.8" y="257" width="25.18" height="36.96"/>
      <rect class="cls-15" x="192.8" y="220.04" width="25.18" height="36.96"/>
      <rect class="cls-15" x="192.8" y="293.96" width="25.18" height="36.96"/>
      <rect class="cls-15" x="192.8" y="737.5" width="25.18" height="36.96"/>
      <rect class="cls-15" x="192.8" y="109.15" width="25.18" height="36.96"/>
      <rect class="cls-15" x="192.8" y="72.19" width="25.18" height="36.96"/>
      <rect class="cls-15" x="192.8" y="146.12" width="25.18" height="36.96"/>
      <rect class="cls-15" x="192.8" y="183.08" width="25.18" height="36.96"/>
      <rect class="cls-15" x="192.8" y="700.54" width="25.18" height="36.96"/>
      <rect class="cls-15" x="192.8" y="663.58" width="25.18" height="36.96"/>
      <rect class="cls-15" x="192.8" y="330.92" width="25.18" height="36.96"/>
      <rect class="cls-15" x="192.8" y="367.89" width="25.18" height="36.96"/>
      <rect class="cls-15" x="192.8" y="478.77" width="25.18" height="36.96"/>
      <rect class="cls-15" x="192.8" y="441.81" width="25.18" height="36.96"/>
      <rect class="cls-15" x="192.8" y="404.84" width="25.18" height="36.96"/>
      <rect class="cls-16" x="217.98" y="589.65" width="25.18" height="36.96"/>
      <rect class="cls-16" x="217.98" y="552.69" width="25.18" height="36.96"/>
      <rect class="cls-16" x="217.98" y="515.73" width="25.18" height="36.96"/>
      <rect class="cls-16" x="217.98" y="626.61" width="25.18" height="36.96"/>
      <rect class="cls-15" x="217.98" y="257" width="25.18" height="36.96"/>
      <rect class="cls-15" x="217.98" y="220.04" width="25.18" height="36.96"/>
      <rect class="cls-15" x="217.98" y="293.96" width="25.18" height="36.96"/>
      <rect class="cls-15" x="217.98" y="737.5" width="25.18" height="36.96"/>
      <rect class="cls-15" x="217.98" y="109.15" width="25.18" height="36.96"/>
      <rect class="cls-15" x="217.98" y="72.19" width="25.18" height="36.96"/>
      <rect class="cls-15" x="217.98" y="146.12" width="25.18" height="36.96"/>
      <rect class="cls-15" x="217.98" y="183.08" width="25.18" height="36.96"/>
      <rect class="cls-15" x="217.98" y="700.54" width="25.18" height="36.96"/>
      <rect class="cls-15" x="217.98" y="663.58" width="25.18" height="36.96"/>
      <rect class="cls-15" x="217.98" y="330.92" width="25.18" height="36.96"/>
      <rect class="cls-15" x="217.98" y="367.89" width="25.18" height="36.96"/>
      <rect class="cls-15" x="217.98" y="478.77" width="25.18" height="36.96"/>
      <rect class="cls-15" x="217.98" y="441.81" width="25.18" height="36.96"/>
      <rect class="cls-15" x="217.98" y="404.84" width="25.18" height="36.96"/>
      <rect class="cls-16" x="243.16" y="589.65" width="25.18" height="36.96"/>
      <rect class="cls-16" x="243.16" y="552.69" width="25.18" height="36.96"/>
      <rect class="cls-16" x="243.16" y="515.73" width="25.18" height="36.96"/>
      <rect class="cls-16" x="243.16" y="626.61" width="25.18" height="36.96"/>
      <rect class="cls-15" x="243.16" y="257" width="25.18" height="36.96"/>
      <rect class="cls-15" x="243.16" y="220.04" width="25.18" height="36.96"/>
      <rect class="cls-15" x="243.16" y="293.96" width="25.18" height="36.96"/>
      <rect class="cls-15" x="243.16" y="737.5" width="25.18" height="36.96"/>
      <rect class="cls-15" x="243.16" y="109.15" width="25.18" height="36.96"/>
      <rect class="cls-15" x="243.16" y="72.19" width="25.18" height="36.96"/>
      <rect class="cls-15" x="243.16" y="146.12" width="25.18" height="36.96"/>
      <rect class="cls-15" x="243.16" y="183.08" width="25.18" height="36.96"/>
      <rect class="cls-15" x="243.16" y="700.54" width="25.18" height="36.96"/>
      <rect class="cls-15" x="243.16" y="663.58" width="25.18" height="36.96"/>
      <rect class="cls-15" x="243.16" y="330.92" width="25.18" height="36.96"/>
      <rect class="cls-15" x="243.16" y="367.89" width="25.18" height="36.96"/>
      <rect class="cls-15" x="243.16" y="478.77" width="25.18" height="36.96"/>
      <rect class="cls-15" x="243.16" y="441.81" width="25.18" height="36.96"/>
      <rect class="cls-15" x="243.16" y="404.84" width="25.18" height="36.96"/>
      <rect class="cls-16" x="268.33" y="589.65" width="25.18" height="36.96"/>
      <rect class="cls-16" x="268.33" y="552.69" width="25.18" height="36.96"/>
      <rect class="cls-16" x="268.33" y="515.73" width="25.18" height="36.96"/>
      <rect class="cls-16" x="268.33" y="626.61" width="25.18" height="36.96"/>
      <rect class="cls-15" x="268.33" y="257" width="25.18" height="36.96"/>
      <rect class="cls-15" x="268.33" y="220.04" width="25.18" height="36.96"/>
      <rect class="cls-15" x="268.33" y="293.96" width="25.18" height="36.96"/>
      <rect class="cls-15" x="268.33" y="737.5" width="25.18" height="36.96"/>
      <rect class="cls-15" x="268.33" y="109.15" width="25.18" height="36.96"/>
      <rect class="cls-15" x="268.33" y="72.19" width="25.18" height="36.96"/>
      <rect class="cls-15" x="268.33" y="146.12" width="25.18" height="36.96"/>
      <rect class="cls-15" x="268.33" y="183.08" width="25.18" height="36.96"/>
      <rect class="cls-15" x="268.33" y="700.54" width="25.18" height="36.96"/>
      <rect class="cls-15" x="268.33" y="663.58" width="25.18" height="36.96"/>
      <rect class="cls-15" x="268.33" y="330.92" width="25.18" height="36.96"/>
      <rect class="cls-15" x="268.33" y="367.89" width="25.18" height="36.96"/>
      <rect class="cls-15" x="268.33" y="478.77" width="25.18" height="36.96"/>
      <rect class="cls-15" x="268.33" y="441.81" width="25.18" height="36.96"/>
      <rect class="cls-15" x="268.33" y="404.84" width="25.18" height="36.96"/>
      <rect class="cls-16" x="293.51" y="589.65" width="25.18" height="36.96"/>
      <rect class="cls-16" x="293.51" y="552.69" width="25.18" height="36.96"/>
      <rect class="cls-16" x="293.51" y="515.73" width="25.18" height="36.96"/>
      <rect class="cls-15" x="293.51" y="626.61" width="25.18" height="36.96"/>
      <rect class="cls-16" x="293.51" y="257" width="25.18" height="36.96"/>
      <rect class="cls-16" x="293.51" y="220.04" width="25.18" height="36.96"/>
      <rect class="cls-16" x="293.51" y="293.96" width="25.18" height="36.96"/>
      <rect class="cls-16" x="293.51" y="737.5" width="25.18" height="36.96"/>
      <rect class="cls-15" x="293.51" y="109.15" width="25.18" height="36.96"/>
      <rect class="cls-15" x="293.51" y="72.19" width="25.18" height="36.96"/>
      <rect class="cls-15" x="293.51" y="146.12" width="25.18" height="36.96"/>
      <rect class="cls-15" x="293.51" y="183.08" width="25.18" height="36.96"/>
      <rect class="cls-15" x="293.51" y="700.54" width="25.18" height="36.96"/>
      <rect class="cls-15" x="293.51" y="663.58" width="25.18" height="36.96"/>
      <rect class="cls-15" x="293.51" y="330.92" width="25.18" height="36.96"/>
      <rect class="cls-15" x="293.51" y="367.89" width="25.18" height="36.96"/>
      <rect class="cls-15" x="293.51" y="478.77" width="25.18" height="36.96"/>
      <rect class="cls-15" x="293.51" y="441.81" width="25.18" height="36.96"/>
      <rect class="cls-15" x="293.51" y="404.84" width="25.18" height="36.96"/>
    </g>
  </g>
  <g class="cls-28">
    <g>
      <rect class="cls-16" x="326.07" y="589.65" width="25.18" height="36.96"/>
      <rect class="cls-16" x="326.07" y="552.69" width="25.18" height="36.96"/>
      <rect class="cls-16" x="326.07" y="515.73" width="25.18" height="36.96"/>
      <rect class="cls-15" x="326.07" y="626.61" width="25.18" height="36.96"/>
      <rect class="cls-16" x="326.07" y="257" width="25.18" height="36.96"/>
      <rect class="cls-16" x="326.07" y="220.04" width="25.18" height="36.96"/>
      <rect class="cls-16" x="326.07" y="293.96" width="25.18" height="36.96"/>
      <rect class="cls-16" x="326.07" y="737.5" width="25.18" height="36.96"/>
      <rect class="cls-16" x="326.07" y="109.15" width="25.18" height="36.96"/>
      <rect class="cls-16" x="326.07" y="72.19" width="25.18" height="36.96"/>
      <rect class="cls-16" x="326.07" y="146.12" width="25.18" height="36.96"/>
      <rect class="cls-16" x="326.07" y="183.08" width="25.18" height="36.96"/>
      <rect class="cls-16" x="326.07" y="700.54" width="25.18" height="36.96"/>
      <rect class="cls-16" x="326.07" y="663.58" width="25.18" height="36.96"/>
      <rect class="cls-16" x="326.07" y="330.92" width="25.18" height="36.96"/>
      <rect class="cls-15" x="326.07" y="367.89" width="25.18" height="36.96"/>
      <rect class="cls-15" x="326.07" y="478.77" width="25.18" height="36.96"/>
      <rect class="cls-15" x="326.07" y="441.81" width="25.18" height="36.96"/>
      <rect class="cls-15" x="326.07" y="404.84" width="25.18" height="36.96"/>
      <rect class="cls-16" x="351.24" y="589.65" width="25.18" height="36.96"/>
      <rect class="cls-16" x="351.24" y="552.69" width="25.18" height="36.96"/>
      <rect class="cls-16" x="351.24" y="515.73" width="25.18" height="36.96"/>
      <rect class="cls-15" x="351.24" y="626.61" width="25.18" height="36.96"/>
      <rect class="cls-16" x="351.24" y="257" width="25.18" height="36.96"/>
      <rect class="cls-16" x="351.24" y="220.04" width="25.18" height="36.96"/>
      <rect class="cls-16" x="351.24" y="293.96" width="25.18" height="36.96"/>
      <rect class="cls-16" x="351.24" y="737.5" width="25.18" height="36.96"/>
      <rect class="cls-16" x="351.24" y="109.15" width="25.18" height="36.96"/>
      <rect class="cls-16" x="351.24" y="72.19" width="25.18" height="36.96"/>
      <rect class="cls-16" x="351.24" y="146.12" width="25.18" height="36.96"/>
      <rect class="cls-16" x="351.24" y="183.08" width="25.18" height="36.96"/>
      <rect class="cls-16" x="351.24" y="700.54" width="25.18" height="36.96"/>
      <rect class="cls-16" x="351.24" y="663.58" width="25.18" height="36.96"/>
      <rect class="cls-16" x="351.24" y="330.92" width="25.18" height="36.96"/>
      <rect class="cls-15" x="351.24" y="367.89" width="25.18" height="36.96"/>
      <rect class="cls-15" x="351.24" y="478.77" width="25.18" height="36.96"/>
      <rect class="cls-15" x="351.24" y="441.81" width="25.18" height="36.96"/>
      <rect class="cls-15" x="351.24" y="404.84" width="25.18" height="36.96"/>
      <rect class="cls-16" x="376.42" y="589.65" width="25.18" height="36.96"/>
      <rect class="cls-16" x="376.42" y="552.69" width="25.18" height="36.96"/>
      <rect class="cls-16" x="376.42" y="515.73" width="25.18" height="36.96"/>
      <rect class="cls-15" x="376.42" y="626.61" width="25.18" height="36.96"/>
      <rect class="cls-16" x="376.42" y="257" width="25.18" height="36.96"/>
      <rect class="cls-16" x="376.42" y="220.04" width="25.18" height="36.96"/>
      <rect class="cls-16" x="376.42" y="293.96" width="25.18" height="36.96"/>
      <rect class="cls-16" x="376.42" y="737.5" width="25.18" height="36.96"/>
      <rect class="cls-16" x="376.42" y="109.15" width="25.18" height="36.96"/>
      <rect class="cls-16" x="376.42" y="72.19" width="25.18" height="36.96"/>
      <rect class="cls-16" x="376.42" y="146.12" width="25.18" height="36.96"/>
      <rect class="cls-16" x="376.42" y="183.08" width="25.18" height="36.96"/>
      <rect class="cls-16" x="376.42" y="700.54" width="25.18" height="36.96"/>
      <rect class="cls-16" x="376.42" y="663.58" width="25.18" height="36.96"/>
      <rect class="cls-16" x="376.42" y="330.92" width="25.18" height="36.96"/>
      <rect class="cls-15" x="376.42" y="367.89" width="25.18" height="36.96"/>
      <rect class="cls-15" x="376.42" y="478.77" width="25.18" height="36.96"/>
      <rect class="cls-15" x="376.42" y="441.81" width="25.18" height="36.96"/>
      <rect class="cls-15" x="376.42" y="404.84" width="25.18" height="36.96"/>
      <rect class="cls-16" x="401.6" y="589.65" width="25.18" height="36.96"/>
      <rect class="cls-16" x="401.6" y="552.69" width="25.18" height="36.96"/>
      <rect class="cls-16" x="401.6" y="515.73" width="25.18" height="36.96"/>
      <rect class="cls-15" x="401.6" y="626.61" width="25.18" height="36.96"/>
      <rect class="cls-16" x="401.6" y="257" width="25.18" height="36.96"/>
      <rect class="cls-16" x="401.6" y="220.04" width="25.18" height="36.96"/>
      <rect class="cls-16" x="401.6" y="293.96" width="25.18" height="36.96"/>
      <rect class="cls-16" x="401.6" y="737.5" width="25.18" height="36.96"/>
      <rect class="cls-16" x="401.6" y="109.15" width="25.18" height="36.96"/>
      <rect class="cls-16" x="401.6" y="72.19" width="25.18" height="36.96"/>
      <rect class="cls-16" x="401.6" y="146.12" width="25.18" height="36.96"/>
      <rect class="cls-16" x="401.6" y="183.08" width="25.18" height="36.96"/>
      <rect class="cls-16" x="401.6" y="700.54" width="25.18" height="36.96"/>
      <rect class="cls-15" x="401.6" y="663.58" width="25.18" height="36.96"/>
      <rect class="cls-16" x="401.6" y="330.92" width="25.18" height="36.96"/>
      <rect class="cls-15" x="401.6" y="367.89" width="25.18" height="36.96"/>
      <rect class="cls-15" x="401.6" y="478.77" width="25.18" height="36.96"/>
      <rect class="cls-15" x="401.6" y="441.81" width="25.18" height="36.96"/>
      <rect class="cls-15" x="401.6" y="404.84" width="25.18" height="36.96"/>
      <rect class="cls-16" x="426.78" y="589.65" width="25.18" height="36.96"/>
      <rect class="cls-16" x="426.78" y="552.69" width="25.18" height="36.96"/>
      <rect class="cls-16" x="426.78" y="515.73" width="25.18" height="36.96"/>
      <rect class="cls-15" x="426.78" y="626.61" width="25.18" height="36.96"/>
      <rect class="cls-16" x="426.78" y="257" width="25.18" height="36.96"/>
      <rect class="cls-16" x="426.78" y="220.04" width="25.18" height="36.96"/>
      <rect class="cls-16" x="426.78" y="293.96" width="25.18" height="36.96"/>
      <rect class="cls-16" x="426.78" y="737.5" width="25.18" height="36.96"/>
      <rect class="cls-16" x="426.78" y="109.15" width="25.18" height="36.96"/>
      <rect class="cls-16" x="426.78" y="72.19" width="25.18" height="36.96"/>
      <rect class="cls-16" x="426.78" y="146.12" width="25.18" height="36.96"/>
      <rect class="cls-16" x="426.78" y="183.08" width="25.18" height="36.96"/>
      <rect class="cls-15" x="426.78" y="700.54" width="25.18" height="36.96"/>
      <rect class="cls-15" x="426.78" y="663.58" width="25.18" height="36.96"/>
      <rect class="cls-16" x="426.78" y="330.92" width="25.18" height="36.96"/>
      <rect class="cls-15" x="426.78" y="367.89" width="25.18" height="36.96"/>
      <rect class="cls-15" x="426.78" y="478.77" width="25.18" height="36.96"/>
      <rect class="cls-15" x="426.78" y="441.81" width="25.18" height="36.96"/>
      <rect class="cls-15" x="426.78" y="404.84" width="25.18" height="36.96"/>
      <rect class="cls-16" x="451.96" y="589.65" width="25.18" height="36.96"/>
      <rect class="cls-16" x="451.96" y="552.69" width="25.18" height="36.96"/>
      <rect class="cls-16" x="451.96" y="515.73" width="25.18" height="36.96"/>
      <rect class="cls-15" x="451.96" y="626.61" width="25.18" height="36.96"/>
      <rect class="cls-16" x="451.96" y="257" width="25.18" height="36.96"/>
      <rect class="cls-16" x="451.96" y="220.04" width="25.18" height="36.96"/>
      <rect class="cls-16" x="451.96" y="293.96" width="25.18" height="36.96"/>
      <rect class="cls-16" x="451.96" y="737.5" width="25.18" height="36.96"/>
      <rect class="cls-16" x="451.96" y="109.15" width="25.18" height="36.96"/>
      <rect class="cls-16" x="451.96" y="72.19" width="25.18" height="36.96"/>
      <rect class="cls-16" x="451.96" y="146.12" width="25.18" height="36.96"/>
      <rect class="cls-16" x="451.96" y="183.08" width="25.18" height="36.96"/>
      <rect class="cls-15" x="451.96" y="700.54" width="25.18" height="36.96"/>
      <rect class="cls-15" x="451.96" y="663.58" width="25.18" height="36.96"/>
      <rect class="cls-16" x="451.96" y="330.92" width="25.18" height="36.96"/>
      <rect class="cls-16" x="451.96" y="367.89" width="25.18" height="36.96"/>
      <rect class="cls-15" x="451.96" y="478.77" width="25.18" height="36.96"/>
      <rect class="cls-15" x="451.96" y="441.81" width="25.18" height="36.96"/>
      <rect class="cls-15" x="451.96" y="404.84" width="25.18" height="36.96"/>
      <rect class="cls-16" x="477.13" y="589.65" width="25.18" height="36.96"/>
      <rect class="cls-16" x="477.13" y="552.69" width="25.18" height="36.96"/>
      <rect class="cls-15" x="477.13" y="515.73" width="25.18" height="36.96"/>
      <rect class="cls-15" x="477.13" y="626.61" width="25.18" height="36.96"/>
      <rect class="cls-16" x="477.13" y="257" width="25.18" height="36.96"/>
      <rect class="cls-16" x="477.13" y="220.04" width="25.18" height="36.96"/>
      <rect class="cls-16" x="477.13" y="293.96" width="25.18" height="36.96"/>
      <rect class="cls-15" x="477.13" y="737.5" width="25.18" height="36.96"/>
      <rect class="cls-16" x="477.13" y="109.15" width="25.18" height="36.96"/>
      <rect class="cls-16" x="477.13" y="72.19" width="25.18" height="36.96"/>
      <rect class="cls-16" x="477.13" y="146.12" width="25.18" height="36.96"/>
      <rect class="cls-16" x="477.13" y="183.08" width="25.18" height="36.96"/>
      <rect class="cls-15" x="477.13" y="700.54" width="25.18" height="36.96"/>
      <rect class="cls-15" x="477.13" y="663.58" width="25.18" height="36.96"/>
      <rect class="cls-16" x="477.13" y="330.92" width="25.18" height="36.96"/>
      <rect class="cls-16" x="477.13" y="367.89" width="25.18" height="36.96"/>
      <rect class="cls-15" x="477.13" y="478.77" width="25.18" height="36.96"/>
      <rect class="cls-15" x="477.13" y="441.81" width="25.18" height="36.96"/>
      <rect class="cls-15" x="477.13" y="404.84" width="25.18" height="36.96"/>
      <rect class="cls-16" x="502.31" y="589.65" width="25.18" height="36.96"/>
      <rect class="cls-16" x="502.31" y="552.69" width="25.18" height="36.96"/>
      <rect class="cls-15" x="502.31" y="515.73" width="25.18" height="36.96"/>
      <rect class="cls-15" x="502.31" y="626.61" width="25.18" height="36.96"/>
      <rect class="cls-16" x="502.31" y="257" width="25.18" height="36.96"/>
      <rect class="cls-16" x="502.31" y="220.04" width="25.18" height="36.96"/>
      <rect class="cls-16" x="502.31" y="293.96" width="25.18" height="36.96"/>
      <rect class="cls-15" x="502.31" y="737.5" width="25.18" height="36.96"/>
      <rect class="cls-16" x="502.31" y="109.15" width="25.18" height="36.96"/>
      <rect class="cls-16" x="502.31" y="72.19" width="25.18" height="36.96"/>
      <rect class="cls-16" x="502.31" y="146.12" width="25.18" height="36.96"/>
      <rect class="cls-16" x="502.31" y="183.08" width="25.18" height="36.96"/>
      <rect class="cls-15" x="502.31" y="700.54" width="25.18" height="36.96"/>
      <rect class="cls-15" x="502.31" y="663.58" width="25.18" height="36.96"/>
      <rect class="cls-16" x="502.31" y="330.92" width="25.18" height="36.96"/>
      <rect class="cls-16" x="502.31" y="367.89" width="25.18" height="36.96"/>
      <rect class="cls-16" x="502.31" y="478.77" width="25.18" height="36.96"/>
      <rect class="cls-15" x="502.31" y="441.81" width="25.18" height="36.96"/>
      <rect class="cls-15" x="502.31" y="404.84" width="25.18" height="36.96"/>
      <rect class="cls-16" x="527.48" y="589.65" width="25.18" height="36.96"/>
      <rect class="cls-15" x="527.48" y="552.69" width="25.18" height="36.96"/>
      <rect class="cls-15" x="527.48" y="515.73" width="25.18" height="36.96"/>
      <rect class="cls-15" x="527.48" y="626.61" width="25.18" height="36.96"/>
      <rect class="cls-16" x="527.48" y="257" width="25.18" height="36.96"/>
      <rect class="cls-16" x="527.48" y="220.04" width="25.18" height="36.96"/>
      <rect class="cls-16" x="527.48" y="293.96" width="25.18" height="36.96"/>
      <rect class="cls-15" x="527.48" y="737.5" width="25.18" height="36.96"/>
      <rect class="cls-16" x="527.48" y="109.15" width="25.18" height="36.96"/>
      <rect class="cls-16" x="527.48" y="72.19" width="25.18" height="36.96"/>
      <rect class="cls-16" x="527.48" y="146.12" width="25.18" height="36.96"/>
      <rect class="cls-16" x="527.48" y="183.08" width="25.18" height="36.96"/>
      <rect class="cls-15" x="527.48" y="700.54" width="25.18" height="36.96"/>
      <rect class="cls-15" x="527.48" y="663.58" width="25.18" height="36.96"/>
      <rect class="cls-16" x="527.48" y="330.92" width="25.18" height="36.96"/>
      <rect class="cls-16" x="527.48" y="367.89" width="25.18" height="36.96"/>
      <rect class="cls-15" x="527.48" y="478.77" width="25.18" height="36.96"/>
      <rect class="cls-15" x="527.48" y="441.81" width="25.18" height="36.96"/>
      <rect class="cls-15" x="527.48" y="404.84" width="25.18" height="36.96"/>
    </g>
  </g>
  <g class="cls-25">
    <g>
      <rect class="cls-16" x="560.04" y="589.65" width="25.18" height="36.96"/>
      <rect class="cls-15" x="560.04" y="552.69" width="25.18" height="36.96"/>
      <rect class="cls-15" x="560.04" y="515.73" width="25.18" height="36.96"/>
      <rect class="cls-15" x="560.04" y="626.61" width="25.18" height="36.96"/>
      <rect class="cls-16" x="560.04" y="257" width="25.18" height="36.96"/>
      <rect class="cls-16" x="560.04" y="220.04" width="25.18" height="36.96"/>
      <rect class="cls-16" x="560.04" y="293.96" width="25.18" height="36.96"/>
      <rect class="cls-15" x="560.04" y="737.5" width="25.18" height="36.96"/>
      <rect class="cls-16" x="560.04" y="109.15" width="25.18" height="36.96"/>
      <rect class="cls-16" x="560.04" y="72.19" width="25.18" height="36.96"/>
      <rect class="cls-16" x="560.04" y="146.12" width="25.18" height="36.96"/>
      <rect class="cls-16" x="560.04" y="183.08" width="25.18" height="36.96"/>
      <rect class="cls-15" x="560.04" y="700.54" width="25.18" height="36.96"/>
      <rect class="cls-15" x="560.04" y="663.58" width="25.18" height="36.96"/>
      <rect class="cls-16" x="560.04" y="330.92" width="25.18" height="36.96"/>
      <rect class="cls-16" x="560.04" y="367.89" width="25.18" height="36.96"/>
      <rect class="cls-16" x="560.04" y="478.77" width="25.18" height="36.96"/>
      <rect class="cls-16" x="560.04" y="441.81" width="25.18" height="36.96"/>
      <rect class="cls-16" x="560.04" y="404.84" width="25.18" height="36.96"/>
      <rect class="cls-16" x="585.22" y="589.65" width="25.18" height="36.96"/>
      <rect class="cls-15" x="585.22" y="552.69" width="25.18" height="36.96"/>
      <rect class="cls-15" x="585.22" y="515.73" width="25.18" height="36.96"/>
      <rect class="cls-15" x="585.22" y="626.61" width="25.18" height="36.96"/>
      <rect class="cls-16" x="585.22" y="257" width="25.18" height="36.96"/>
      <rect class="cls-16" x="585.22" y="220.04" width="25.18" height="36.96"/>
      <rect class="cls-16" x="585.22" y="293.96" width="25.18" height="36.96"/>
      <rect class="cls-15" x="585.22" y="737.5" width="25.18" height="36.96"/>
      <rect class="cls-16" x="585.22" y="109.15" width="25.18" height="36.96"/>
      <rect class="cls-16" x="585.22" y="72.19" width="25.18" height="36.96"/>
      <rect class="cls-16" x="585.22" y="146.12" width="25.18" height="36.96"/>
      <rect class="cls-16" x="585.22" y="183.08" width="25.18" height="36.96"/>
      <rect class="cls-15" x="585.22" y="700.54" width="25.18" height="36.96"/>
      <rect class="cls-15" x="585.22" y="663.58" width="25.18" height="36.96"/>
      <rect class="cls-16" x="585.22" y="330.92" width="25.18" height="36.96"/>
      <rect class="cls-16" x="585.22" y="367.89" width="25.18" height="36.96"/>
      <rect class="cls-16" x="585.22" y="478.77" width="25.18" height="36.96"/>
      <rect class="cls-16" x="585.22" y="441.81" width="25.18" height="36.96"/>
      <rect class="cls-16" x="585.22" y="404.84" width="25.18" height="36.96"/>
      <rect class="cls-16" x="610.39" y="589.65" width="25.18" height="36.96"/>
      <rect class="cls-15" x="610.39" y="552.69" width="25.18" height="36.96"/>
      <rect class="cls-15" x="610.39" y="515.73" width="25.18" height="36.96"/>
      <rect class="cls-15" x="610.39" y="626.61" width="25.18" height="36.96"/>
      <rect class="cls-16" x="610.39" y="257" width="25.18" height="36.96"/>
      <rect class="cls-16" x="610.39" y="220.04" width="25.18" height="36.96"/>
      <rect class="cls-16" x="610.39" y="293.96" width="25.18" height="36.96"/>
      <rect class="cls-15" x="610.39" y="737.5" width="25.18" height="36.96"/>
      <rect class="cls-16" x="610.39" y="109.15" width="25.18" height="36.96"/>
      <rect class="cls-16" x="610.39" y="72.19" width="25.18" height="36.96"/>
      <rect class="cls-16" x="610.39" y="146.12" width="25.18" height="36.96"/>
      <rect class="cls-16" x="610.39" y="183.08" width="25.18" height="36.96"/>
      <rect class="cls-15" x="610.39" y="700.54" width="25.18" height="36.96"/>
      <rect class="cls-15" x="610.39" y="663.58" width="25.18" height="36.96"/>
      <rect class="cls-15" x="610.39" y="330.92" width="25.18" height="36.96"/>
      <rect class="cls-16" x="610.39" y="367.89" width="25.18" height="36.96"/>
      <rect class="cls-16" x="610.39" y="478.77" width="25.18" height="36.96"/>
      <rect class="cls-16" x="610.39" y="441.81" width="25.18" height="36.96"/>
      <rect class="cls-16" x="610.39" y="404.84" width="25.18" height="36.96"/>
    </g>
  </g>
  <g class="cls-2">
    <text class="cls-8" transform="translate(205.32 65.53)"><tspan class="cls-20" x="0" y="0">Unicellula</tspan><tspan x="25.93" y="0">r</tspan></text>
  </g>
  <g class="cls-14">
    <text class="cls-8" transform="translate(406.66 65.53)"><tspan x="0" y="0">Multicellular</tspan><tspan class="cls-37" x="28.63" y="0"> </tspan><tspan x="35.86" y="0">non-vertebrate</tspan></text>
  </g>
  <g class="cls-18">
    <text class="cls-8" transform="translate(583.94 65.53)"><tspan class="cls-26" x="0" y="0">V</tspan><tspan class="cls-23" x="3.53" y="0">ertebrate</tspan><tspan x="27.13" y="0">s</tspan></text>
  </g>
  <g class="cls-29">
    <g>
      <text class="cls-10" transform="translate(118.69 807.29) rotate(-60)"><tspan x="0" y="0">Metamonada</tspan></text>
      <text class="cls-10" transform="translate(153.1 791.3) rotate(-60)"><tspan x="0" y="0">SAR</tspan></text>
      <text class="cls-10" transform="translate(168.14 807.92) rotate(-60)"><tspan class="cls-34" x="0" y="0">Rhodophyt</tspan><tspan x="26.35" y="0">a</tspan></text>
      <text class="cls-10" transform="translate(199.66 797.88) rotate(-60)"><tspan x="0" y="0">Discoba</tspan></text>
      <text class="cls-10" transform="translate(220.25 805.79) rotate(-60)"><tspan class="cls-31" x="0" y="0">V</tspan><tspan x="3.17" y="0">iridiplantae</tspan></text>
      <text class="cls-10" transform="translate(245.81 805.17) rotate(-60)"><tspan x="0" y="0">Amoebozoa</tspan></text>
      <text class="cls-10" transform="translate(277.89 793.19) rotate(-60)"><tspan x="0" y="0">Fungi</tspan></text>
      <text class="cls-10" transform="translate(290.86 814.34) rotate(-60)"><tspan x="0" y="0">Choanoflagellata</tspan></text>
      <text class="cls-10" transform="translate(328.98 804.7) rotate(-60)"><tspan x="0" y="0">Ctenophora</tspan></text>
      <text class="cls-10" transform="translate(358.37 797.41) rotate(-60)"><tspan x="0" y="0">Porifera</tspan></text>
      <text class="cls-10" transform="translate(382.05 800) rotate(-60)"><tspan x="0" y="0">Placozoa</tspan></text>
      <text class="cls-10" transform="translate(408.18 798.35) rotate(-60)"><tspan x="0" y="0">Cnidaria</tspan></text>
      <text class="cls-10" transform="translate(434.31 796.71) rotate(-60)"><tspan x="0" y="0">Spiralia</tspan></text>
      <text class="cls-10" transform="translate(455.69 803.29) rotate(-60)"><tspan x="0" y="0">Ecdysozoa</tspan></text>
      <text class="cls-10" transform="translate(478.42 807.52) rotate(-60)"><tspan x="0" y="0">Ambulacraria</tspan></text>
      <text class="cls-10" transform="translate(499.38 814.81) rotate(-60)"><tspan x="0" y="0">Cephalochordata</tspan></text>
      <text class="cls-10" transform="translate(533.85 798.65) rotate(-60)"><tspan class="cls-3" x="0" y="0">T</tspan><tspan x="2.8" y="0">unicata</tspan></text>
      <text class="cls-10" transform="translate(561.05 807.99) rotate(-60)"><tspan x="0" y="0">Actinopterygii</tspan></text>
      <text class="cls-10" transform="translate(590.71 800.24) rotate(-60)"><tspan x="0" y="0">Amphibia</tspan></text>
      <text class="cls-10" transform="translate(614.53 802.59) rotate(-60)"><tspan x="0" y="0">Metatheria</tspan></text>
      <text class="cls-6" transform="translate(31.84 757.56)"><tspan class="cls-21" x="0" y="0">V</tspan><tspan x="2.57" y="0">asopressin-regulated</tspan><tspan class="cls-35" x="43.09" y="0"> </tspan><tspan x="44.47" y="0">water</tspan><tspan class="cls-35" x="55.08" y="0"> </tspan><tspan x="56.45" y="0">reabsorption</tspan></text>
      <text class="cls-6" transform="translate(82.65 720.6)"><tspan x="0" y="0">Focal</tspan><tspan class="cls-30" x="10.61" y="0"> </tspan><tspan x="11.82" y="0">adhesion</tspan></text>
      <text class="cls-6" transform="translate(66.01 683.64)"><tspan x="0" y="0">Rap1 signaling pathway</tspan></text>
      <text class="cls-6" transform="translate(76.15 646.67)"><tspan x="0" y="0">Purine</tspan><tspan class="cls-1" x="12.54" y="0"> </tspan><tspan x="13.76" y="0">metabolism</tspan></text>
      <text class="cls-6" transform="translate(68.43 609.72)"><tspan x="0" y="0">Pyrimidine</tspan><tspan class="cls-22" x="20.25" y="0"> </tspan><tspan x="21.48" y="0">metabolism</tspan></text>
      <text class="cls-6" transform="translate(46.97 572.75)"><tspan x="0" y="0">Drug metabolism - other enzymes</tspan></text>
      <text class="cls-6" transform="translate(68.19 535.79)"><tspan x="0" y="0">Nucleotide</tspan><tspan class="cls-17" x="20.5" y="0"> </tspan><tspan x="21.72" y="0">metabolism</tspan></text>
      <text class="cls-6" transform="translate(73.74 498.83)"><tspan x="0" y="0">IgSF CAM signaling</tspan></text>
      <text class="cls-6" transform="translate(38.77 461.87)"><tspan x="0" y="0">Natural</tspan><tspan class="cls-12" x="13.99" y="0"> </tspan><tspan x="15.2" y="0">killer</tspan><tspan class="cls-30" x="24.12" y="0"> </tspan><tspan x="25.33" y="0">cell</tspan><tspan class="cls-12" x="31.84" y="0"> </tspan><tspan x="33.06" y="0">mediated</tspan><tspan class="cls-12" x="50.91" y="0"> </tspan><tspan x="52.12" y="0">cytotoxicity</tspan></text>
      <text class="cls-6" transform="translate(58.29 424.91)"><tspan x="0" y="0">Apoptosis - multiple species</tspan></text>
      <text class="cls-6" transform="translate(51.29 387.95)"><tspan x="0" y="0">Neurotrophin signaling pathway</tspan></text>
      <text class="cls-6" transform="translate(67.29 350.98)"><tspan x="0" y="0">Th17</tspan><tspan class="cls-11" x="9.89" y="0"> </tspan><tspan x="11.14" y="0">cell</tspan><tspan class="cls-32" x="17.65" y="0"> </tspan><tspan x="18.9" y="0">di</tspan><tspan class="cls-36" x="22.28" y="0">f</tspan><tspan x="23.41" y="0">ferentiation</tspan></text>
      <text class="cls-6" transform="translate(61.91 314.02)"><tspan x="0" y="0">Relaxin</tspan><tspan class="cls-5" x="14.47" y="0"> </tspan><tspan x="15.68" y="0">signaling</tspan><tspan class="cls-33" x="32.81" y="0"> </tspan><tspan x="34.02" y="0">pathway</tspan></text>
      <text class="cls-6" transform="translate(83.37 277.06)"><tspan x="0" y="0">Axon guidance</tspan></text>
      <text class="cls-6" transform="translate(19.22 240.1)"><tspan x="0" y="0">Growth hormone synthesis, secretion and action</tspan></text>
      <text class="cls-6" transform="translate(65.77 203.14)"><tspan x="0" y="0">FoxO signaling pathway</tspan></text>
      <text class="cls-6" transform="translate(57.81 166.18)"><tspan x="0" y="0">TGF-beta signaling pathway</tspan></text>
      <text class="cls-6" transform="translate(69.14 129.21)"><tspan x="0" y="0">p53 signaling pathway</tspan></text>
      <text class="cls-6" transform="translate(79.27 92.26)"><tspan x="0" y="0">Integrin</tspan><tspan class="cls-30" x="14.47" y="0"> </tspan><tspan x="15.69" y="0">signaling</tspan></text>
      <text class="cls-9" transform="translate(114.75 54.33)"><tspan x="0" y="0">Cumulative gene sets per clade | Human Diseases excluded</tspan></text>
      <text class="cls-7" transform="translate(114.75 45.45)"><tspan x="0" y="0">KEGG</tspan><tspan class="cls-13" x="20.69" y="0"> </tspan><tspan x="22.72" y="0">Pathway</tspan><tspan class="cls-4" x="50.18" y="0"> </tspan><tspan x="52.21" y="0">Enrichment</tspan><tspan class="cls-27" x="88.42" y="0"> </tspan><tspan x="90.05" y="0">Across</tspan><tspan class="cls-4" x="111.93" y="0"> </tspan><tspan x="113.96" y="0">Evolutionary</tspan><tspan class="cls-13" x="153.36" y="0"> </tspan><tspan x="155.4" y="0">Clades</tspan></text>
    </g>
  </g>
</svg>